<svg viewBox="0 0 100 150" xmlns="http://www.w3.org/2000/svg">
    <defs>
    <g id="big_hole" >
            <rect x="0" y="0" width="12" height="14" />
            <circle cx="12" cy="7" r="7" />
        </g>

        <g id="mini_hole">
            <rect x="0" y="0" width="4" height="5" />
            <circle cx="2" cy="5" r="2" />
        </g>


        <mask id="build_mini_b">
            <!-- Fondo blanco: deja ver todo -->
            <rect x="0" y="0" width="100%" height="100%" fill="white"/>
            <!-- Zonas negras: se restan (los ojos) -->
            <use href="#mini_hole" transform="translate(3.5, 3)" />
            <use href="#mini_hole" transform="translate(12.5, 3)" />
        </mask>
        <g id="mini_b" mask="url(#build_mini_b)">
            <rect x="0" y="0" width="20" height="9" />
            <circle cx="5" cy="9" r="5" />
            <circle cx="15" cy="9" r="5" />
        </g>


        <mask id="build_big_b">
            <!-- Fondo blanco: deja ver todo -->
            <rect x="0" y="0" width="100%" height="100%" fill="white"/>
            <!-- Zonas negras: se restan (los ojos) -->
            <use href="#big_hole" transform="translate(16, 13)" />
            <use href="#mini_b" transform="translate(16, 43)" />
        </mask>
        <g id="big_b" mask="url(#build_big_b)">
            <rect x="0" y="0" width="35" height="70" />
            <circle cx="35" cy="17" r="17" />
            <circle cx="35" cy="51" r="19" />
        </g>

        <mask id="subtract_big_b">
            <!-- Fondo blanco: deja ver todo -->
            <rect x="0" y="0" width="100%" height="100%" fill="white"/>
            <!-- Zonas negras: se restan (la big b) -->
            <use href="#big_b" transform="translate(25, 63)" />
        </mask>
        <g id="droplet" mask="url(#subtract_big_b)">
            <!-- Triángulo superior (punta de la gota) -->
            <polygon points="50,0 93.3,75 6.7,75" />

            <!-- Círculo inferior (parte redondeada de la gota) -->
            <circle cx="50" cy="100" r="50" />
        </g>
    </defs>

    <use href="#droplet" fill="#A61E4D"/>
</svg>
